<?xml version="1.0" encoding="UTF-8"?>
<svg width="636.4" height="192" enable-background="new 0 0 500 500" version="1.1" viewBox="0 0 636.40002 192" xml:space="preserve" xmlns="http://www.w3.org/2000/svg" xmlns:cc="http://creativecommons.org/ns#" xmlns:dc="http://purl.org/dc/elements/1.1/" xmlns:rdf="http://www.w3.org/1999/02/22-rdf-syntax-ns#"><metadata><rdf:RDF><cc:Work rdf:about=""><dc:format>image/svg+xml</dc:format><dc:type rdf:resource="http://purl.org/dc/dcmitype/StillImage"/><dc:title/></cc:Work></rdf:RDF></metadata><g transform="matrix(.63634 0 0 .64956 1.3333 -133.96)"><path transform="matrix(1.5715 0 0 1.5395 -2.0953 206.23)" d="m66.688 4.0625c-9.1538 34.786-35.521 54.579-49.844 75.031-16.209 23.179-21.765 59.314-4.1875 85.688 12.101 18.161 30.121 25.812 54.031 25.812 23.908 0 41.917-7.6515 54.031-25.812 17.578-26.373 12.053-62.507-4.1562-85.688-14.315-20.452-40.721-40.245-49.875-75.031zm-0.8125 82.75c5.7799 0 9.5259 1.8249 11.406 6.6875 6.3297-5.2036 11.229-6.6875 17.531-6.6875 8.1248 0 14.406 3.9971 14.406 14.406 0 1.4855-0.2186 3.2852-0.4375 4.75l-4.1875 24.375c-0.10691 0.67684-0.21875 1.4635-0.21875 2.0312 0 1.3699 0.76809 2.0312 2.3125 2.0312h6.2188l-0.78125 4.4062c-1.2479 7.1367-4.769 9.4062-10.438 9.4062-8.9508 0-12.625-4.0924-12.625-11.781 0-2.0474 0.18726-3.9712 0.65625-6.4688l3.75-22.188c0.11709-0.69113 0.21875-2.0317 0.21875-2.5 0-3.1724-1.76-4.875-5.4062-4.875-3.3434 0-6.3449 1.0277-9.4688 3.1875l-5.1875 30.594 6.125 1.125c-0.22145 3.7369-0.92656 7.5922-2.0312 11.781h-21.312l6.7812-39.531c0.10563-0.68918 0.21875-1.9203 0.21875-2.375 0-3.0594-1.665-4.7812-5.3125-4.7812-3.1244 0-6.5681 1.0277-9.6875 3.1875l-5.1875 30.594 6.125 1.125c0 2.1572-0.81456 7.8196-2.0312 11.781h-26.844c0-2.1429 0.78649-7.8189 2-11.781l5.7812-1.125 5.625-32.969-6.8438-0.6875c0-2.2735 0.89785-7.821 2-11.562 6.5493-1.1419 15.084-1.5938 22.188-1.5938l-1.125 6.3438h0.78125c5.4458-5.4329 9.6706-6.9062 15-6.9062z" fill="#fff"/></g><g transform="translate(148.78 -276.76)" fill="#fff"><path d="m107.5 418.1c-1.289 7.211-4.935 9.508-10.777 9.508-9.238 0-13.031-4.121-13.031-11.893 0-2.064 0.194-4.016 0.685-6.539l3.874-22.428c0.114-0.701 0.231-2.057 0.231-2.525 0-3.205-1.829-4.918-5.593-4.918-3.446 0-6.528 1.023-9.75 3.211l-5.356 30.906 6.295 1.141c-0.222 3.777-0.938 7.672-2.078 11.904h-21.983l6.987-39.947c0.112-0.697 0.222-1.953 0.222-2.408 0-3.094-1.707-4.807-5.475-4.807-3.223 0-6.754 1.023-9.977 3.211l-5.361 30.906 6.305 1.141c0 2.182-0.829 7.898-2.082 11.904h-27.688c0-2.166 0.797-7.898 2.055-11.904l5.958-1.141 5.815-33.314-7.073-0.688c0-2.297 0.915-7.898 2.054-11.676 6.76-1.156 15.573-1.615 22.894-1.615l-1.135 6.418h0.798c5.619-5.49 9.953-6.984 15.453-6.984 5.963 0 9.838 1.838 11.777 6.758 6.53-5.264 11.579-6.758 18.079-6.758 8.384 0 14.883 4.02 14.883 14.545 0 1.494-0.226 3.318-0.461 4.797l-4.33 24.629c-0.113 0.682-0.225 1.48-0.225 2.051 0 1.383 0.793 2.066 2.391 2.066h6.418l-0.799 4.449z"/><path d="m160.37 401.16h-32.963c-0.11 0.926-0.226 2.297-0.226 3.207 0 6.42 3.19 9.283 11.201 9.283 4.822 0 11.811-1.729 16.365-4.232 0.946 4.459 1.515 9.379 1.515 13.857-5.503 3.08-13.519 4.332-20.159 4.332-16.365 0-25.062-8.469-25.062-23.922 0-2.525 0.228-5.393 0.681-8.24 3.652-21.516 14.888-29.883 29.544-29.883 14.288 0 21.639 7.328 21.639 20.389-1e-3 3.418-1.026 9.836-2.535 15.209zm-19.793-24.266c-5.727 0-9.488 3.895-11.345 13.975h17.653c0.455-1.842 0.879-4.822 0.879-6.418 0-5.031-2.736-7.557-7.187-7.557z"/><path d="m203.74 380h-14.06l-4.817 27.246c-0.115 0.797-0.115 1.609-0.115 2.182 0 3.076 1.595 4.119 5.275 4.119 2.628 0 7.102-0.801 9.84-2.186 0.227 2.07 0.343 4.691 0.343 6.42 0 2.166-0.116 4.918-0.454 7.443-4.023 1.713-10.554 2.393-13.63 2.393-11.895 0-17.283-5.73-17.283-15.34 0-1.941 0.229-3.766 0.572-5.83l4.677-26.447h-6.961l2.511-13.291h6.734l2.189-12.006c4.591-1.383 11.008-2.408 16.022-2.52l-2.618 14.525h14.995c-0.568 4.48-1.594 9.286-3.22 13.292z"/><path d="m261.45 418.1c-1.484 7.115-4.794 9.508-10.753 9.508-5.156 0-8.948-1.822-11.002-6.988h-0.801c-4.902 5.848-9.953 6.988-15.112 6.988-11.318 0-18.419-7.443-18.419-22.428 0-4.816 0.684-9.963 1.941-14.77 4.588-17.863 15.342-24.848 28.854-24.848 3.191 0 7.67 0.566 10.863 1.494 2.194-0.797 4.818-1.367 8.009-1.367 1.973 0 4.71 0.217 6.306 0.789l-7.669 43.055c-0.117 0.682-0.234 1.48-0.234 1.934 0 1.5 0.803 2.184 2.43 2.184h6.501l-0.914 4.449zm-25.525-39.265c-5.154 0-9.605 2.41-12.144 11.463-1.136 4.232-2.049 10.293-2.049 13.844 0 7.211 2.991 10.189 8.123 10.189 2.85 0 5.277-0.68 8.015-2.291l5.615-31.932c-2.054-0.687-5.393-1.273-7.56-1.273z"/><path d="m325.94 355.96-9.469 53.281c-0.117 0.684-0.258 1.467-0.258 1.93 0 1.461 0.797 2.135 2.385 2.135h6.424l-0.783 4.391c-1.225 6.984-4.848 9.355-10.572 9.355-5.309 0-9.371-1.814-11.281-6.869h-0.803c-5.058 5.621-10.03 6.869-15.636 6.869-11.735 0-18.489-7.541-18.489-22.303 0-4.74 0.695-9.703 1.908-14.426 4.523-17.58 15.095-24.34 28.396-24.34 3.271 0 7.759 0.555 10.942 1.471l2.008-11.619-6.984-0.672c0-2.26 0.811-7.773 2.035-11.492 6.549-1.127 16-1.582 23.212-1.582l-3.035 13.871zm-28.179 23.092c-5.301 0-9.691 2.371-12.168 11.271-1.133 4.176-2.028 10.135-2.028 13.627 0 7.221 3.054 10.021 8.21 10.021 3.408 0 6.446-0.891 9.142-2.467l5.418-30.871c-2.169-0.9-6.218-1.581-8.574-1.581z"/><path d="m371.57 382.77c-1.926-0.576-4.283-1.012-6.748-1.012-3.289 0-6.773 0.773-10.162 3.037l-4.948 28.283 8.126 1.133c0 2.133-0.799 7.764-2.043 11.715h-29.193c0-2.139 0.799-7.775 2.042-11.715l5.857-1.133 5.744-32.797-6.988-0.672c0-2.258 0.914-7.775 2.043-11.496 6.646-1.113 15.311-1.578 22.538-1.578l-1.369 7.551h0.787c5.529-7.086 9.461-8.105 12.957-8.105 1.711 0 4.064 0.328 5.404 0.906-0.572 4.5-2.371 10.914-4.047 15.883z"/><path d="m425.76 398.1c-3.594 19.938-14.756 28.953-30.168 28.953-14.344 0-24.25-7.541-24.25-23.445 0-2.701 0.338-5.629 0.791-8.672 3.156-19.941 14.631-28.951 30.203-28.951 14.084 0 24.221 7.314 24.221 23.545 0 2.597-0.227 5.74-0.797 8.57zm-24.565-19.27c-6.414 0-10.691 4.053-12.965 17.684-0.455 2.834-0.666 5.406-0.666 7.438 0 7.672 3.723 10.264 9.023 10.264 6.873 0 10.938-4.41 13.174-17.701 0.457-2.699 0.67-5.18 0.67-7.207 1e-3 -7.884-3.949-10.478-9.236-10.478z"/><path d="m486.37 396.95c-3.27 20.281-13.631 30.096-30.627 30.096-2.941 0-6.887-0.57-9.934-1.814l-1.916 11.051 8 1.137c0 2.139-0.799 7.764-2.021 11.705h-29.074c0-2.137 0.789-7.777 2.035-11.705l5.863-1.137 9.795-56.004-6.984-0.672c0-2.258 0.885-7.775 2.123-11.496 6.529-1.113 15.342-1.578 22.559-1.578l-0.812 4.406h0.812c3.932-3.607 7.754-4.961 12.74-4.961 10.939 0 18.123 7.207 18.123 22.307 0 2.718-0.201 5.618-0.682 8.665zm-23.67-17.904c-3.377 0-6.512 1.016-9.24 2.936l-5.402 30.289c2.277 1.029 5.402 1.473 7.885 1.473 7.443 0 11.959-3.713 14.186-16.67 0.475-3.043 0.814-5.867 0.814-8.111-1e-3 -7.208-3.266-9.917-8.243-9.917z"/></g></svg>
